<mxfile host="app.diagrams.net" modified="2022-01-17T15:23:43.780Z" agent="5.0 (Windows NT 10.0; Win64; x64) AppleWebKit/537.36 (KHTML, like Gecko) Chrome/97.0.4692.71 Safari/537.36" etag="dstXlWsZMpsLrG0dfxM3" version="16.2.7" type="github">
  <diagram id="C5RBs43oDa-KdzZeNtuy" name="Page-1">
    <mxGraphModel dx="1865" dy="547" grid="1" gridSize="10" guides="1" tooltips="1" connect="1" arrows="1" fold="1" page="1" pageScale="1" pageWidth="827" pageHeight="1169" math="0" shadow="0">
      <root>
        <mxCell id="WIyWlLk6GJQsqaUBKTNV-0" />
        <mxCell id="WIyWlLk6GJQsqaUBKTNV-1" parent="WIyWlLk6GJQsqaUBKTNV-0" />
        <mxCell id="dX1FgQJYi90nIRrC_LWT-3" style="edgeStyle=orthogonalEdgeStyle;rounded=0;orthogonalLoop=1;jettySize=auto;html=1;exitX=0.5;exitY=1;exitDx=0;exitDy=0;entryX=0.5;entryY=0;entryDx=0;entryDy=0;" edge="1" parent="WIyWlLk6GJQsqaUBKTNV-1" source="WIyWlLk6GJQsqaUBKTNV-3" target="WIyWlLk6GJQsqaUBKTNV-6">
          <mxGeometry relative="1" as="geometry" />
        </mxCell>
        <mxCell id="WIyWlLk6GJQsqaUBKTNV-3" value="Generate random word" style="rounded=1;whiteSpace=wrap;html=1;fontSize=12;glass=0;strokeWidth=1;shadow=0;" parent="WIyWlLk6GJQsqaUBKTNV-1" vertex="1">
          <mxGeometry x="160" y="60" width="120" height="40" as="geometry" />
        </mxCell>
        <mxCell id="dX1FgQJYi90nIRrC_LWT-2" style="edgeStyle=orthogonalEdgeStyle;rounded=0;orthogonalLoop=1;jettySize=auto;html=1;exitX=0.5;exitY=1;exitDx=0;exitDy=0;entryX=0.5;entryY=0;entryDx=0;entryDy=0;" edge="1" parent="WIyWlLk6GJQsqaUBKTNV-1" source="WIyWlLk6GJQsqaUBKTNV-6" target="WIyWlLk6GJQsqaUBKTNV-10">
          <mxGeometry relative="1" as="geometry" />
        </mxCell>
        <mxCell id="WIyWlLk6GJQsqaUBKTNV-6" value="Generate blanks = length(word)&amp;nbsp;" style="rhombus;whiteSpace=wrap;html=1;shadow=0;fontFamily=Helvetica;fontSize=12;align=center;strokeWidth=1;spacing=6;spacingTop=-4;" parent="WIyWlLk6GJQsqaUBKTNV-1" vertex="1">
          <mxGeometry x="150" y="130" width="140" height="120" as="geometry" />
        </mxCell>
        <mxCell id="dX1FgQJYi90nIRrC_LWT-4" style="edgeStyle=orthogonalEdgeStyle;rounded=0;orthogonalLoop=1;jettySize=auto;html=1;exitX=0.5;exitY=1;exitDx=0;exitDy=0;" edge="1" parent="WIyWlLk6GJQsqaUBKTNV-1" source="WIyWlLk6GJQsqaUBKTNV-10">
          <mxGeometry relative="1" as="geometry">
            <mxPoint x="220" y="430" as="targetPoint" />
          </mxGeometry>
        </mxCell>
        <mxCell id="WIyWlLk6GJQsqaUBKTNV-10" value="Ask user to guess letter" style="rhombus;whiteSpace=wrap;html=1;shadow=0;fontFamily=Helvetica;fontSize=12;align=center;strokeWidth=1;spacing=6;spacingTop=-4;" parent="WIyWlLk6GJQsqaUBKTNV-1" vertex="1">
          <mxGeometry x="170" y="290" width="100" height="80" as="geometry" />
        </mxCell>
        <mxCell id="dX1FgQJYi90nIRrC_LWT-9" style="edgeStyle=orthogonalEdgeStyle;rounded=0;orthogonalLoop=1;jettySize=auto;html=1;" edge="1" parent="WIyWlLk6GJQsqaUBKTNV-1" source="WIyWlLk6GJQsqaUBKTNV-12" target="dX1FgQJYi90nIRrC_LWT-7">
          <mxGeometry relative="1" as="geometry" />
        </mxCell>
        <mxCell id="dX1FgQJYi90nIRrC_LWT-19" style="edgeStyle=orthogonalEdgeStyle;rounded=0;orthogonalLoop=1;jettySize=auto;html=1;exitX=0;exitY=0.5;exitDx=0;exitDy=0;entryX=0.5;entryY=0;entryDx=0;entryDy=0;" edge="1" parent="WIyWlLk6GJQsqaUBKTNV-1" source="WIyWlLk6GJQsqaUBKTNV-12" target="dX1FgQJYi90nIRrC_LWT-6">
          <mxGeometry relative="1" as="geometry" />
        </mxCell>
        <mxCell id="WIyWlLk6GJQsqaUBKTNV-12" value="is letter in word?" style="rounded=1;whiteSpace=wrap;html=1;fontSize=12;glass=0;strokeWidth=1;shadow=0;" parent="WIyWlLk6GJQsqaUBKTNV-1" vertex="1">
          <mxGeometry x="165" y="430" width="110" height="40" as="geometry" />
        </mxCell>
        <mxCell id="dX1FgQJYi90nIRrC_LWT-20" style="edgeStyle=orthogonalEdgeStyle;rounded=0;orthogonalLoop=1;jettySize=auto;html=1;" edge="1" parent="WIyWlLk6GJQsqaUBKTNV-1" source="dX1FgQJYi90nIRrC_LWT-6" target="dX1FgQJYi90nIRrC_LWT-12">
          <mxGeometry relative="1" as="geometry" />
        </mxCell>
        <mxCell id="dX1FgQJYi90nIRrC_LWT-6" value="Letter not in word try again" style="ellipse;whiteSpace=wrap;html=1;" vertex="1" parent="WIyWlLk6GJQsqaUBKTNV-1">
          <mxGeometry x="-30" y="470" width="120" height="90" as="geometry" />
        </mxCell>
        <mxCell id="dX1FgQJYi90nIRrC_LWT-17" style="edgeStyle=orthogonalEdgeStyle;rounded=0;orthogonalLoop=1;jettySize=auto;html=1;" edge="1" parent="WIyWlLk6GJQsqaUBKTNV-1" source="dX1FgQJYi90nIRrC_LWT-7" target="dX1FgQJYi90nIRrC_LWT-16">
          <mxGeometry relative="1" as="geometry" />
        </mxCell>
        <mxCell id="dX1FgQJYi90nIRrC_LWT-7" value="Good guess, next letter" style="ellipse;whiteSpace=wrap;html=1;" vertex="1" parent="WIyWlLk6GJQsqaUBKTNV-1">
          <mxGeometry x="361" y="480" width="120" height="80" as="geometry" />
        </mxCell>
        <mxCell id="dX1FgQJYi90nIRrC_LWT-25" style="edgeStyle=orthogonalEdgeStyle;rounded=0;orthogonalLoop=1;jettySize=auto;html=1;entryX=0.5;entryY=0;entryDx=0;entryDy=0;" edge="1" parent="WIyWlLk6GJQsqaUBKTNV-1" source="dX1FgQJYi90nIRrC_LWT-12" target="dX1FgQJYi90nIRrC_LWT-22">
          <mxGeometry relative="1" as="geometry" />
        </mxCell>
        <mxCell id="dX1FgQJYi90nIRrC_LWT-12" value="Lose a life" style="rounded=1;whiteSpace=wrap;html=1;" vertex="1" parent="WIyWlLk6GJQsqaUBKTNV-1">
          <mxGeometry x="-30" y="600" width="120" height="60" as="geometry" />
        </mxCell>
        <mxCell id="dX1FgQJYi90nIRrC_LWT-36" style="edgeStyle=orthogonalEdgeStyle;rounded=0;orthogonalLoop=1;jettySize=auto;html=1;entryX=0.5;entryY=0;entryDx=0;entryDy=0;" edge="1" parent="WIyWlLk6GJQsqaUBKTNV-1" source="dX1FgQJYi90nIRrC_LWT-16" target="dX1FgQJYi90nIRrC_LWT-35">
          <mxGeometry relative="1" as="geometry" />
        </mxCell>
        <mxCell id="dX1FgQJYi90nIRrC_LWT-16" value="Replace blank with letter" style="rounded=1;whiteSpace=wrap;html=1;" vertex="1" parent="WIyWlLk6GJQsqaUBKTNV-1">
          <mxGeometry x="356" y="620" width="130" height="50" as="geometry" />
        </mxCell>
        <mxCell id="dX1FgQJYi90nIRrC_LWT-28" style="edgeStyle=orthogonalEdgeStyle;rounded=0;orthogonalLoop=1;jettySize=auto;html=1;exitX=0.5;exitY=1;exitDx=0;exitDy=0;" edge="1" parent="WIyWlLk6GJQsqaUBKTNV-1" source="dX1FgQJYi90nIRrC_LWT-22" target="dX1FgQJYi90nIRrC_LWT-27">
          <mxGeometry relative="1" as="geometry" />
        </mxCell>
        <mxCell id="dX1FgQJYi90nIRrC_LWT-31" style="edgeStyle=orthogonalEdgeStyle;rounded=0;orthogonalLoop=1;jettySize=auto;html=1;exitX=1;exitY=0.5;exitDx=0;exitDy=0;entryX=0;entryY=0.5;entryDx=0;entryDy=0;" edge="1" parent="WIyWlLk6GJQsqaUBKTNV-1" source="dX1FgQJYi90nIRrC_LWT-22" target="dX1FgQJYi90nIRrC_LWT-30">
          <mxGeometry relative="1" as="geometry" />
        </mxCell>
        <mxCell id="dX1FgQJYi90nIRrC_LWT-22" value="Out of lives?" style="rounded=1;whiteSpace=wrap;html=1;" vertex="1" parent="WIyWlLk6GJQsqaUBKTNV-1">
          <mxGeometry x="-30" y="720" width="120" height="60" as="geometry" />
        </mxCell>
        <mxCell id="dX1FgQJYi90nIRrC_LWT-23" value="No" style="text;html=1;strokeColor=none;fillColor=none;align=center;verticalAlign=middle;whiteSpace=wrap;rounded=0;" vertex="1" parent="WIyWlLk6GJQsqaUBKTNV-1">
          <mxGeometry x="80" y="420" width="60" height="30" as="geometry" />
        </mxCell>
        <mxCell id="dX1FgQJYi90nIRrC_LWT-24" value="Yes" style="text;html=1;strokeColor=none;fillColor=none;align=center;verticalAlign=middle;whiteSpace=wrap;rounded=0;" vertex="1" parent="WIyWlLk6GJQsqaUBKTNV-1">
          <mxGeometry x="341" y="420" width="60" height="30" as="geometry" />
        </mxCell>
        <mxCell id="dX1FgQJYi90nIRrC_LWT-26" value="Yes" style="text;html=1;strokeColor=none;fillColor=none;align=center;verticalAlign=middle;whiteSpace=wrap;rounded=0;" vertex="1" parent="WIyWlLk6GJQsqaUBKTNV-1">
          <mxGeometry x="-20" y="800" width="60" height="30" as="geometry" />
        </mxCell>
        <mxCell id="dX1FgQJYi90nIRrC_LWT-27" value="Game over" style="rounded=1;whiteSpace=wrap;html=1;" vertex="1" parent="WIyWlLk6GJQsqaUBKTNV-1">
          <mxGeometry x="-30" y="850" width="120" height="60" as="geometry" />
        </mxCell>
        <mxCell id="dX1FgQJYi90nIRrC_LWT-34" style="edgeStyle=orthogonalEdgeStyle;rounded=0;orthogonalLoop=1;jettySize=auto;html=1;entryX=0.5;entryY=1;entryDx=0;entryDy=0;" edge="1" parent="WIyWlLk6GJQsqaUBKTNV-1" source="dX1FgQJYi90nIRrC_LWT-30" target="WIyWlLk6GJQsqaUBKTNV-12">
          <mxGeometry relative="1" as="geometry">
            <mxPoint x="215" y="490" as="targetPoint" />
          </mxGeometry>
        </mxCell>
        <mxCell id="dX1FgQJYi90nIRrC_LWT-30" value="Try again" style="rounded=1;whiteSpace=wrap;html=1;" vertex="1" parent="WIyWlLk6GJQsqaUBKTNV-1">
          <mxGeometry x="160" y="720" width="120" height="60" as="geometry" />
        </mxCell>
        <mxCell id="dX1FgQJYi90nIRrC_LWT-32" value="No" style="text;html=1;strokeColor=none;fillColor=none;align=center;verticalAlign=middle;whiteSpace=wrap;rounded=0;" vertex="1" parent="WIyWlLk6GJQsqaUBKTNV-1">
          <mxGeometry x="90" y="720" width="60" height="30" as="geometry" />
        </mxCell>
        <mxCell id="dX1FgQJYi90nIRrC_LWT-38" style="edgeStyle=orthogonalEdgeStyle;rounded=0;orthogonalLoop=1;jettySize=auto;html=1;entryX=0.5;entryY=0;entryDx=0;entryDy=0;" edge="1" parent="WIyWlLk6GJQsqaUBKTNV-1" source="dX1FgQJYi90nIRrC_LWT-35" target="dX1FgQJYi90nIRrC_LWT-37">
          <mxGeometry relative="1" as="geometry" />
        </mxCell>
        <mxCell id="dX1FgQJYi90nIRrC_LWT-40" style="edgeStyle=orthogonalEdgeStyle;rounded=0;orthogonalLoop=1;jettySize=auto;html=1;entryX=1;entryY=0.5;entryDx=0;entryDy=0;" edge="1" parent="WIyWlLk6GJQsqaUBKTNV-1" source="dX1FgQJYi90nIRrC_LWT-35" target="dX1FgQJYi90nIRrC_LWT-30">
          <mxGeometry relative="1" as="geometry" />
        </mxCell>
        <mxCell id="dX1FgQJYi90nIRrC_LWT-35" value="Word complete?" style="rounded=1;whiteSpace=wrap;html=1;" vertex="1" parent="WIyWlLk6GJQsqaUBKTNV-1">
          <mxGeometry x="361" y="720" width="120" height="60" as="geometry" />
        </mxCell>
        <mxCell id="dX1FgQJYi90nIRrC_LWT-37" value="You won!" style="rounded=1;whiteSpace=wrap;html=1;" vertex="1" parent="WIyWlLk6GJQsqaUBKTNV-1">
          <mxGeometry x="361" y="850" width="120" height="60" as="geometry" />
        </mxCell>
        <mxCell id="dX1FgQJYi90nIRrC_LWT-39" value="Yes" style="text;html=1;strokeColor=none;fillColor=none;align=center;verticalAlign=middle;whiteSpace=wrap;rounded=0;" vertex="1" parent="WIyWlLk6GJQsqaUBKTNV-1">
          <mxGeometry x="405" y="800" width="60" height="30" as="geometry" />
        </mxCell>
        <mxCell id="dX1FgQJYi90nIRrC_LWT-42" value="No" style="text;html=1;strokeColor=none;fillColor=none;align=center;verticalAlign=middle;whiteSpace=wrap;rounded=0;" vertex="1" parent="WIyWlLk6GJQsqaUBKTNV-1">
          <mxGeometry x="290" y="720" width="60" height="30" as="geometry" />
        </mxCell>
      </root>
    </mxGraphModel>
  </diagram>
</mxfile>
